<?xml version="1.0" encoding="utf-8"?>
<!-- Generator: Adobe Illustrator 16.0.2, SVG Export Plug-In . SVG Version: 6.00 Build 0)  -->
<!DOCTYPE svg PUBLIC "-//W3C//DTD SVG 1.1//EN" "http://www.w3.org/Graphics/SVG/1.1/DTD/svg11.dtd">
<svg version="1.1" id="Layer_1" xmlns="http://www.w3.org/2000/svg" xmlns:xlink="http://www.w3.org/1999/xlink" x="0px" y="0px"
	 width="120px" height="120px" viewBox="0 0 120 120" enable-background="new 0 0 120 120" xml:space="preserve">
<g>
	<path fill-rule="evenodd" clip-rule="evenodd" fill="#039BE5" d="M18.546,64.292c0-0.004,0-0.008,0-0.012
		c-3.917,0-7.834,0.042-11.749-0.027c-1.084-0.02-1.318,0.333-1.275,1.337c0.095,2.207,0.203,4.409,0.54,6.595
		c0.339,2.2,1.949,3.636,4.184,3.684c0.958,0.02,1.917-0.011,2.875-0.017c2.395-0.014,4.022,1.137,4.954,3.304
		c0.968,2.252,1.925,4.51,2.859,6.776c0.829,2.011,0.451,3.837-0.983,5.438c-0.667,0.745-1.41,1.418-2.105,2.138
		c-1.721,1.781-1.707,4.021,0.042,5.747c3.024,2.986,6.051,5.968,9.084,8.945c1.646,1.615,3.891,1.632,5.577,0.033
		c0.786-0.745,1.504-1.562,2.298-2.298c1.511-1.4,3.298-1.771,5.208-1.065c2.416,0.892,4.807,1.858,7.169,2.884
		c2.015,0.875,3.067,2.484,3.119,4.702c0.021,0.916,0.002,1.833,0.006,2.75c0.01,2.341,1.335,4.027,3.642,4.338
		c4.605,0.622,9.223,0.629,13.82-0.112c1.897-0.306,3.244-1.891,3.319-3.822c0.041-1.04-0.008-2.083,0.004-3.125
		c0.027-2.374,1.151-4.028,3.329-4.948c2.181-0.922,4.372-1.822,6.563-2.717c2.191-0.894,4.15-0.543,5.846,1.138
		c0.68,0.675,1.34,1.372,2.045,2.019c1.746,1.602,3.906,1.578,5.57-0.078c3.043-3.027,6.075-6.063,9.092-9.116
		c1.61-1.629,1.629-3.801,0.068-5.471c-0.74-0.791-1.559-1.508-2.294-2.302c-1.392-1.502-1.837-3.273-1.105-5.195
		c0.946-2.483,1.958-4.946,3.046-7.371c0.874-1.948,2.451-2.992,4.625-3.031c1.042-0.019,2.085,0.023,3.125-0.015
		c2.083-0.077,3.75-1.548,4.032-3.579c0.298-2.147,0.396-4.311,0.509-6.475c0.043-0.82-0.223-1.083-1.041-1.068
		c-2.375,0.042-4.75,0.011-7.125,0.011c-5.583,0-11.166,0.026-16.75-0.02c-0.949-0.008-1.172,0.272-1.186,1.183
		c-0.023,1.41-0.18,2.826-0.381,4.225c-2.238,15.5-17.909,26.739-33.313,23.911c-14.12-2.593-23.845-13.947-24.184-28.292
		c-0.02-0.851-0.27-1.027-1.06-1.02C26.546,64.312,22.546,64.292,18.546,64.292z"/>
	<path fill-rule="evenodd" clip-rule="evenodd" fill="#039BE5" d="M90.827,9.556c2.158,1.433,3.963,2.956,5.682,4.579
		c8.592,8.111,13.773,18.045,15.785,29.656c0.256,1.473,0.412,2.968,0.521,4.459c0.049,0.673,0.303,0.848,0.916,0.823
		c0.873-0.036,1.75-0.033,2.625-0.002c2.111,0.075,3.505,1.455,3.568,3.549c0.039,1.249,0.035,2.5,0.017,3.75
		c-0.041,2.673-1.517,4.107-4.196,4.133c-3.856,0.036-99.884,0.008-110.358,0C2.615,60.5,1.04,59.01,1.012,56.266
		C1,55.1,0.991,53.933,1.017,52.767c0.045-2.027,1.205-3.334,3.215-3.661c0.328-0.053,0.66-0.1,0.991-0.113
		c2.369-0.1,2.344-0.1,2.6-2.463c1.156-10.645,5.198-20.063,12.066-28.271c2.47-2.951,5.255-5.575,8.331-7.886
		c0.341-0.256,0.671-0.845,1.117-0.592c0.404,0.229,0.176,0.848,0.177,1.286c0.011,6.374,0.018,12.749-0.014,19.122
		c-0.009,1.793,0.381,3.405,1.769,4.619c1.782,1.557,3.834,2.02,6.032,1.06c2.177-0.95,3.358-2.667,3.36-5.095
		c0.006-8.416-0.014-16.831,0.016-25.246c0.01-2.71-0.349-2.072,2.046-2.925c3.418-1.218,6.941-2.003,10.532-2.537
		c1.021-0.152,1.298,0.034,1.291,1.063c-0.042,5.332-0.025,10.665-0.027,15.997c-0.002,7.291,0.033,14.582-0.022,21.872
		c-0.024,3.301,2.351,5.76,5.542,5.876c3.217,0.117,5.631-2.457,5.637-5.881c0.02-12.582,0.021-25.163-0.021-37.744
		c-0.004-1.158,0.245-1.366,1.396-1.194c3.841,0.574,7.585,1.467,11.242,2.775c0.94,0.336,1.251,0.786,1.246,1.793
		c-0.044,8.332,0.052,16.665-0.065,24.996c-0.043,3.124,1.105,5.255,3.9,6.595c1.408,0.675,4.676-0.247,5.986-1.82
		c0.821-0.987,1.215-2.096,1.258-3.428c0.221-6.855,0.105-13.71,0.139-20.566C90.755,10.193,90.789,9.988,90.827,9.556z"/>
	<path fill-rule="evenodd" clip-rule="evenodd" fill="#039BE5" d="M30.545,64.275c0.79-0.007,1.04,0.169,1.06,1.02
		c0.339,14.344,10.064,25.699,24.184,28.292c15.404,2.829,31.075-8.411,33.313-23.911c0.201-1.399,0.357-2.814,0.381-4.225
		c0.014-0.911,0.236-1.191,1.186-1.183c5.584,0.046,21.5,0.052,23.875,0.009c0.818-0.015,1.084,0.248,1.041,1.068
		c-0.112,2.164-0.211,4.328-0.509,6.475c-0.282,2.031-1.949,3.502-4.032,3.579c-1.04,0.039-2.083-0.003-3.125,0.015
		c-2.174,0.039-3.751,1.083-4.625,3.031c-1.088,2.425-2.1,4.888-3.046,7.371c-0.731,1.922-0.286,3.692,1.105,5.195
		c0.735,0.794,1.554,1.511,2.294,2.302c1.561,1.67,1.542,3.842-0.068,5.471c-3.017,3.053-6.049,6.089-9.092,9.116
		c-1.664,1.656-3.824,1.679-5.57,0.078c-0.705-0.647-1.365-1.344-2.045-2.019c-1.695-1.681-3.654-2.031-5.846-1.138
		c-2.191,0.895-4.383,1.795-6.563,2.717c-2.178,0.92-3.302,2.575-3.329,4.948c-0.012,1.041,0.037,2.084-0.004,3.125
		c-0.075,1.931-1.422,3.516-3.319,3.822c-4.597,0.741-9.215,0.733-13.82,0.112c-2.306-0.311-3.632-1.997-3.642-4.338
		c-0.004-0.917,0.015-1.834-0.006-2.75c-0.052-2.218-1.104-3.826-3.119-4.702c-2.362-1.026-4.753-1.993-7.169-2.884
		c-1.911-0.706-3.698-0.335-5.208,1.065c-0.794,0.736-1.512,1.553-2.298,2.298c-1.687,1.599-3.932,1.582-5.577-0.033
		c-3.033-2.977-6.061-5.959-9.084-8.945c-1.749-1.727-1.763-3.966-0.042-5.747c0.695-0.719,1.438-1.393,2.105-2.138
		c1.434-1.601,1.812-3.427,0.983-5.438c-0.935-2.266-1.891-4.523-2.859-6.776c-0.931-2.167-2.559-3.318-4.954-3.304
		c-0.958,0.005-1.917,0.037-2.875,0.017C8.01,75.821,6.4,74.385,6.061,72.185c-0.337-2.187-0.445-4.388-0.54-6.595
		c-0.043-1.004,0.191-1.356,1.275-1.337C10.712,64.322,26.546,64.312,30.545,64.275z"/>
</g>
</svg>
