<?xml version="1.0" encoding="utf-8"?>
<!-- Generator: Adobe Illustrator 16.0.2, SVG Export Plug-In . SVG Version: 6.00 Build 0)  -->
<!DOCTYPE svg PUBLIC "-//W3C//DTD SVG 1.1//EN" "http://www.w3.org/Graphics/SVG/1.1/DTD/svg11.dtd">
<svg version="1.1" id="Layer_1" xmlns="http://www.w3.org/2000/svg" xmlns:xlink="http://www.w3.org/1999/xlink" x="0px" y="0px"
	 width="163px" height="40px" viewBox="0 0 163 40" enable-background="new 0 0 163 40" xml:space="preserve">
<g>
	<g>
		<g>
			<g>
				<path fill="#546E7A" d="M17.783,9.03L17.783,9.03c0-0.001,0-0.004,0-0.005c0-0.008,0-0.014,0-0.023V8.981l0,0
					c-0.027-4.89-3.997-8.845-8.892-8.845c-4.845,0-8.782,3.877-8.883,8.697H0v22.094h0.003c0.01,4.902,3.986,8.873,8.89,8.873
					c4.911,0,8.891-3.981,8.891-8.891c0-0.002,0-0.002,0-0.006h-0.001V9.03z M8.893,34.26c-1.847,0-3.347-1.504-3.347-3.351
					c0-0.002,0-0.002,0-0.006H5.535V9.025h0.001c0-1.846,1.51-3.35,3.354-3.35c1.837,0,3.339,1.49,3.354,3.322v21.906h-0.004
					c0,0.004,0,0.004,0,0.006C12.241,32.756,10.741,34.26,8.893,34.26z"/>
			</g>
		</g>
		<g>
			<g>
				<path fill="#546E7A" d="M53.293,1.554c-0.537-0.56-1.406-1.038-2.414-1.038l-2.22,0.004v38.946h5.572L54.227,3.831
					C54.227,3.831,54.25,2.548,53.293,1.554z"/>
			</g>
		</g>
		<g>
			<g>
				<path fill="#546E7A" d="M33.354,0.671H24.34v38.787h5.544l0.007-21.022h4.066c1.514,0.129,2.745,1.647,2.745,3.271v17.751h5.542
					V21.707c0-2.347-0.915-4.483-2.403-6.071c1.488-1.592,2.403-3.726,2.403-6.075C42.244,4.65,38.264,0.671,33.354,0.671z
					 M33.354,6.212c1.845,0,3.348,1.502,3.348,3.349c0,1.625-1.336,3.192-2.702,3.264h-4.108V6.212H33.354z"/>
			</g>
		</g>
		<g>
			<g>
				<path fill="#546E7A" d="M77.277,11.173V8.965c0-4.909-3.982-8.889-8.891-8.889c-4.25,0-7.802,2.983-8.677,6.968
					c-0.158,0.731-0.231,1.5-0.212,2.237c0,1.676,0.466,3.771,1.271,5.109c0,0,10.402,14.585,10.524,14.783
					c0.314,0.499,0.485,1.093,0.488,1.724c-0.012,1.836-1.507,3.327-3.347,3.327c-1.846,0-3.348-1.5-3.348-3.349v-2.207h-5.545
					v2.207c0,4.912,3.981,8.893,8.893,8.893c4.816,0,8.734-3.834,8.881-8.614l0.007-0.003v-0.243c0-0.003,0-0.01-0.001-0.014
					c0-0.003,0.001-0.006,0.001-0.008h-0.001c-0.002-1.7-0.447-3.301-1.297-4.655l-0.846-1.163l-9.412-13.703l0,0
					c-0.006-0.008-0.009-0.016-0.015-0.022c-0.448-0.568-0.711-1.284-0.711-2.062V8.956l0,0c0.004-1.843,1.504-3.34,3.346-3.34
					c1.845,0,3.349,1.504,3.349,3.349v2.208H77.277z"/>
			</g>
		</g>
	</g>
	<g>
		<path fill="#546E7A" d="M95.359,9.216V1.315h1.656v6.622h4.236v1.279H95.359z"/>
		<path fill="#546E7A" d="M103.891,9.216V1.315h6.214v1.279h-4.561v1.985h4.217v1.279h-4.217v2.079h4.787v1.279H103.891z"/>
		<path fill="#546E7A" d="M116.815,8.032c0.432,0,0.849-0.062,1.25-0.188c0.406-0.125,0.719-0.285,0.938-0.479V6.272h-1.93V5.05
			h3.444v2.904c-0.418,0.43-0.963,0.768-1.635,1.009c-0.67,0.244-1.373,0.366-2.112,0.366c-1.286,0-2.273-0.357-2.966-1.069
			c-0.689-0.712-1.036-1.722-1.036-3.03c0-1.302,0.349-2.299,1.042-2.992c0.695-0.693,1.695-1.042,3-1.042
			c1.855,0,3.033,0.687,3.539,2.059l-1.524,0.459c-0.164-0.399-0.424-0.702-0.773-0.908c-0.354-0.207-0.768-0.309-1.241-0.309
			c-0.777,0-1.368,0.235-1.771,0.706s-0.604,1.146-0.604,2.025c0,0.895,0.209,1.584,0.625,2.072
			C115.477,7.79,116.063,8.032,116.815,8.032z"/>
		<path fill="#546E7A" d="M129.1,9.216l-0.701-2.02h-3.011l-0.7,2.02h-1.654l2.879-7.901h1.952l2.873,7.901H129.1z M126.889,2.532
			l-0.032,0.124c-0.036,0.134-0.085,0.288-0.135,0.458c-0.052,0.173-0.376,1.119-0.966,2.839h2.272l-0.778-2.272l-0.244-0.762
			L126.889,2.532z"/>
		<path fill="#546E7A" d="M133.322,9.216V1.315h1.654v6.622h4.239v1.279H133.322z"/>
		<path fill="#546E7A" d="M101.803,19.542c0,0.773-0.287,1.365-0.862,1.774c-0.573,0.41-1.414,0.615-2.526,0.615
			c-1.014,0-1.808-0.181-2.383-0.54c-0.573-0.358-0.945-0.901-1.107-1.631l1.595-0.263c0.111,0.419,0.32,0.723,0.636,0.912
			c0.314,0.188,0.749,0.284,1.307,0.284c1.154,0,1.731-0.352,1.731-1.055c0-0.224-0.065-0.41-0.198-0.555
			c-0.135-0.146-0.319-0.267-0.563-0.365c-0.239-0.097-0.703-0.214-1.385-0.353c-0.592-0.139-1.005-0.25-1.236-0.334
			c-0.232-0.083-0.441-0.182-0.628-0.296c-0.186-0.116-0.347-0.252-0.477-0.412c-0.13-0.162-0.231-0.351-0.305-0.568
			c-0.073-0.216-0.107-0.465-0.107-0.744c0-0.715,0.266-1.262,0.802-1.641c0.537-0.381,1.318-0.57,2.344-0.57
			c0.977,0,1.712,0.153,2.204,0.459c0.492,0.308,0.81,0.814,0.952,1.521l-1.604,0.218c-0.083-0.34-0.252-0.596-0.503-0.768
			c-0.253-0.171-0.614-0.257-1.085-0.257c-1.004,0-1.503,0.313-1.503,0.942c0,0.205,0.054,0.374,0.161,0.504
			c0.104,0.131,0.266,0.243,0.472,0.334c0.21,0.09,0.633,0.206,1.275,0.344c0.756,0.162,1.3,0.311,1.628,0.446
			c0.328,0.136,0.586,0.296,0.775,0.478c0.19,0.182,0.337,0.398,0.438,0.65C101.752,18.923,101.803,19.214,101.803,19.542z"/>
		<path fill="#546E7A" d="M104.536,21.818v-7.901h6.212v1.28h-4.561v1.985h4.217v1.278h-4.217v2.081h4.789v1.278H104.536z"/>
		<path fill="#546E7A" d="M119.138,21.818l-1.833-2.999h-1.94v2.999h-1.653v-7.901h3.948c0.94,0,1.669,0.204,2.18,0.609
			c0.513,0.407,0.771,0.988,0.771,1.746c0,0.553-0.159,1.031-0.475,1.434c-0.314,0.401-0.734,0.666-1.271,0.793l2.138,3.319H119.138
			z M118.942,16.341c0-0.76-0.487-1.139-1.456-1.139h-2.122v2.333h2.165c0.465,0,0.816-0.105,1.055-0.314
			C118.822,17.012,118.942,16.718,118.942,16.341z"/>
		<path fill="#546E7A" d="M127.222,21.818h-1.678l-2.922-7.901h1.727l1.628,5.075c0.102,0.33,0.239,0.828,0.416,1.492l0.117-0.482
			l0.284-1.01l1.62-5.075h1.711L127.222,21.818z"/>
		<path fill="#546E7A" d="M132.489,21.818v-7.901h1.651v7.901H132.489z"/>
		<path fill="#546E7A" d="M140.885,20.63c0.996,0,1.69-0.501,2.081-1.503l1.442,0.545c-0.312,0.762-0.77,1.331-1.366,1.702
			c-0.603,0.372-1.32,0.559-2.157,0.559c-1.272,0-2.254-0.361-2.947-1.081c-0.695-0.72-1.039-1.725-1.039-3.019
			c0-1.296,0.331-2.294,1.002-2.988c0.668-0.696,1.641-1.043,2.91-1.043c0.926,0,1.684,0.186,2.266,0.558
			c0.583,0.372,0.992,0.919,1.229,1.64l-1.458,0.397c-0.123-0.396-0.365-0.71-0.727-0.945c-0.36-0.232-0.786-0.35-1.274-0.35
			c-0.75,0-1.314,0.232-1.702,0.696c-0.388,0.464-0.581,1.142-0.581,2.036c0,0.907,0.198,1.602,0.596,2.079
			C139.558,20.39,140.131,20.63,140.885,20.63z"/>
		<path fill="#546E7A" d="M147.003,21.818v-7.901h6.213v1.28h-4.558v1.985h4.215v1.278h-4.215v2.081h4.789v1.278H147.003z"/>
		<path fill="#546E7A" d="M162.622,19.542c0,0.773-0.288,1.365-0.861,1.774c-0.575,0.41-1.417,0.615-2.528,0.615
			c-1.011,0-1.806-0.181-2.383-0.54c-0.573-0.358-0.943-0.901-1.107-1.631l1.599-0.263c0.107,0.419,0.318,0.723,0.633,0.912
			c0.313,0.188,0.748,0.284,1.308,0.284c1.153,0,1.731-0.352,1.731-1.055c0-0.224-0.067-0.41-0.198-0.555
			c-0.137-0.146-0.319-0.267-0.563-0.365c-0.241-0.097-0.705-0.214-1.388-0.353c-0.591-0.139-1.002-0.25-1.234-0.334
			c-0.231-0.083-0.439-0.182-0.627-0.296c-0.188-0.116-0.349-0.252-0.477-0.412c-0.131-0.162-0.234-0.351-0.306-0.568
			c-0.074-0.216-0.111-0.465-0.111-0.744c0-0.715,0.269-1.262,0.808-1.641c0.534-0.381,1.315-0.57,2.341-0.57
			c0.979,0,1.714,0.153,2.206,0.459c0.492,0.308,0.808,0.814,0.95,1.521l-1.604,0.218c-0.082-0.34-0.251-0.596-0.503-0.768
			c-0.253-0.171-0.614-0.257-1.084-0.257c-1.002,0-1.5,0.313-1.5,0.942c0,0.205,0.052,0.374,0.157,0.504
			c0.105,0.131,0.263,0.243,0.474,0.334c0.21,0.09,0.633,0.206,1.271,0.344c0.763,0.162,1.303,0.311,1.631,0.446
			c0.325,0.136,0.586,0.296,0.775,0.478c0.192,0.182,0.339,0.398,0.439,0.65C162.573,18.923,162.622,19.214,162.622,19.542z"/>
	</g>
	<g>
		<rect x="85.94" fill="#546E7A" width="0.849" height="40"/>
	</g>
</g>
</svg>
