<?xml version="1.0" encoding="utf-8"?>
<!-- Generator: Adobe Illustrator 16.0.2, SVG Export Plug-In . SVG Version: 6.00 Build 0)  -->
<!DOCTYPE svg PUBLIC "-//W3C//DTD SVG 1.1//EN" "http://www.w3.org/Graphics/SVG/1.1/DTD/svg11.dtd">
<svg version="1.1" id="Layer_1" xmlns="http://www.w3.org/2000/svg" xmlns:xlink="http://www.w3.org/1999/xlink" x="0px" y="0px"
	 width="20px" height="20px" viewBox="0 0 20 20" enable-background="new 0 0 20 20" xml:space="preserve">
<path fill="#546E7A" d="M4.62,8.79c1.44,2.83,3.76,5.14,6.59,6.59l2.2-2.2c0.27-0.27,0.67-0.359,1.02-0.24
	c1.12,0.371,2.33,0.57,3.57,0.57c0.55,0,1,0.45,1,1V18c0,0.55-0.45,1-1,1C8.609,19,1,11.391,1,2c0-0.55,0.45-1,1-1h3.5
	c0.55,0,1,0.45,1,1c0,1.25,0.2,2.45,0.57,3.57C7.18,5.92,7.1,6.311,6.82,6.59L4.62,8.79z"/>
<path fill="#546E7A" d="M398,50h-16c-1.1,0-1.99,0.9-1.99,2L380,64c0,1.1,0.9,2,2,2h16c1.1,0,2-0.9,2-2V52C400,50.9,399.1,50,398,50
	z M398,54l-8,5l-8-5v-2l8,5l8-5V54z"/>
</svg>
