<?xml version="1.0" encoding="utf-8"?>
<!-- Generator: Adobe Illustrator 16.0.2, SVG Export Plug-In . SVG Version: 6.00 Build 0)  -->
<!DOCTYPE svg PUBLIC "-//W3C//DTD SVG 1.1//EN" "http://www.w3.org/Graphics/SVG/1.1/DTD/svg11.dtd">
<svg version="1.1" id="Layer_1" xmlns="http://www.w3.org/2000/svg" xmlns:xlink="http://www.w3.org/1999/xlink" x="0px" y="0px"
	 width="18px" height="18px" viewBox="0 0 18 18" enable-background="new 0 0 18 18" xml:space="preserve">
<path fill="#546E7A" d="M10.25,5.485c-0.785,0.286-1.282,1.023-1.226,1.83l0.019,0.312L8.729,7.588
	C7.585,7.442,6.585,6.947,5.736,6.114L5.321,5.701L5.215,6.006c-0.227,0.681-0.081,1.398,0.39,1.881
	c0.251,0.267,0.194,0.305-0.238,0.146C5.215,7.982,5.083,7.944,5.07,7.963C5.026,8.008,5.177,8.586,5.296,8.815
	c0.164,0.318,0.497,0.63,0.861,0.814l0.309,0.146L6.102,9.781c-0.352,0-0.364,0.006-0.327,0.14c0.126,0.413,0.622,0.852,1.176,1.042
	l0.39,0.133L7,11.3c-0.502,0.292-1.093,0.457-1.685,0.47C5.032,11.777,4.8,11.802,4.8,11.821c0,0.063,0.768,0.419,1.214,0.559
	c1.338,0.413,2.929,0.235,4.123-0.47c0.849-0.502,1.697-1.5,2.094-2.466c0.214-0.515,0.428-1.456,0.428-1.907
	c0-0.292,0.019-0.331,0.371-0.68c0.207-0.203,0.401-0.425,0.439-0.489c0.063-0.121,0.057-0.121-0.264-0.013
	c-0.535,0.191-0.61,0.165-0.346-0.121c0.194-0.204,0.428-0.572,0.428-0.68c0-0.019-0.095,0.013-0.201,0.07
	c-0.113,0.063-0.365,0.159-0.554,0.216l-0.34,0.108l-0.308-0.21c-0.17-0.114-0.408-0.242-0.534-0.28
	C11.029,5.371,10.539,5.383,10.25,5.485z M0,0h18v18H0V0z"/>
</svg>
