<?xml version="1.0" encoding="utf-8"?>
<!-- Generator: Adobe Illustrator 16.0.2, SVG Export Plug-In . SVG Version: 6.00 Build 0)  -->
<!DOCTYPE svg PUBLIC "-//W3C//DTD SVG 1.1//EN" "http://www.w3.org/Graphics/SVG/1.1/DTD/svg11.dtd">
<svg version="1.1" id="Layer_1" xmlns="http://www.w3.org/2000/svg" xmlns:xlink="http://www.w3.org/1999/xlink" x="0px" y="0px"
	 width="18px" height="18px" viewBox="0 0 18 18" enable-background="new 0 0 18 18" xml:space="preserve">
<path fill="#546E7A" d="M14.051,13.241V9.728c0-1.882-1.005-2.758-2.345-2.758c-1.081,0-1.565,0.595-1.835,1.012V7.113H7.833
	c0.027,0.575,0,6.129,0,6.129h2.038V9.818c0-0.183,0.013-0.366,0.066-0.497c0.147-0.366,0.482-0.745,1.045-0.745
	c0.737,0,1.032,0.562,1.032,1.385v3.279H14.051z M5.688,6.276c0.71,0,1.152-0.471,1.152-1.059C6.827,4.616,6.397,4.159,5.701,4.159
	S4.549,4.616,4.549,5.217c0,0.588,0.442,1.059,1.126,1.059H5.688z M6.706,13.241V7.113H4.669v6.128H6.706z M0,0h18v18H0V0z"/>
</svg>
